
<svg width="375" height="459" viewBox="0 0 375 459" fill="none" xmlns="http://www.w3.org/2000/svg">
<g clip-path="url(#clip0)" filter="url(#filter0_d)">
<rect x="10" y="10" width="355" height="430" rx="8" fill="url(#paint0_radial)"/>
<g style="mix-blend-mode:soft-light" opacity="0.15">
<circle cx="186.5" cy="195.5" r="154.5" fill="white"/>
</g>
<g style="mix-blend-mode:soft-light" opacity="0.15">
<circle cx="186.5" cy="195.5" r="131.5" fill="white"/>
</g>
<g style="mix-blend-mode:soft-light" opacity="0.15">
<circle cx="186.5" cy="195.5" r="104.5" fill="white"/>
</g>
<g opacity="0.4">
<path fill-rule="evenodd" clip-rule="evenodd" d="M94.9793 366.335C94.9793 366.729 94.9744 367.122 94.9646 367.514C97.393 366.75 99.9966 366.335 102.705 366.335C113.57 366.335 122.748 373.008 125.7 382.159C126.432 382.128 127.171 382.112 127.915 382.112C141.512 382.112 153.184 387.374 158.212 394.883H-120C-117.3 386.333 -104.545 379.858 -89.2176 379.858C-86.5324 379.858 -83.9262 380.057 -81.4392 380.43C-80.4972 365.446 -67.0453 353.564 -50.5891 353.564C-43.5671 353.564 -37.0922 355.727 -31.9028 359.372C-29.3464 355.868 -25.011 353.564 -20.0929 353.564C-17.3937 353.564 -14.8699 354.258 -12.7195 355.463C-7.3399 332.89 14.4413 316 40.4928 316C70.5848 316 94.9793 338.536 94.9793 366.335Z" fill="white"/>
<path fill-rule="evenodd" clip-rule="evenodd" d="M369 422.565H248C249.504 417.409 256.609 413.505 265.147 413.505C266.789 413.505 268.378 413.649 269.884 413.919C271.811 408.908 276.671 405.351 282.361 405.351C283.87 405.351 285.32 405.601 286.673 406.062C286.667 405.826 286.665 405.589 286.665 405.351C286.665 388.589 300.253 375 317.016 375C331.392 375 343.434 384.995 346.571 398.416C353.592 400.587 358.692 407.13 358.692 414.864C358.692 415.143 358.685 415.42 358.672 415.696C363.315 416.923 367.052 419.416 369 422.565Z" fill="white"/>
<path fill-rule="evenodd" clip-rule="evenodd" d="M326.746 323.336H250C252.029 320.911 256.042 319.26 260.661 319.26C260.781 319.26 260.901 319.262 261.02 319.264C260.887 318.551 260.818 317.817 260.818 317.066C260.818 310.486 266.152 305.152 272.732 305.152C274.099 305.152 275.413 305.382 276.636 305.806C280.446 300.475 286.686 297 293.738 297C304.706 297 313.711 305.406 314.662 316.127C314.741 316.126 314.821 316.125 314.901 316.125C320.297 316.125 324.907 319.117 326.746 323.336Z" fill="white"/>
<path fill-rule="evenodd" clip-rule="evenodd" d="M207 372.565H251.684C251.128 370.661 248.504 369.219 245.352 369.219C244.745 369.219 244.159 369.273 243.602 369.372C242.891 367.522 241.096 366.208 238.995 366.208C238.437 366.208 237.902 366.301 237.402 366.471C237.404 366.384 237.405 366.296 237.405 366.208C237.405 360.018 232.387 355 226.197 355C220.888 355 216.441 358.691 215.283 363.647C212.69 364.449 210.807 366.865 210.807 369.721C210.807 369.824 210.809 369.927 210.814 370.029C209.099 370.482 207.719 371.402 207 372.565Z" fill="white"/>
</g>
<g clip-path="url(#clip1)">
<path d="M244.502 240.508L222.187 207.47C222.183 207.479 222.178 207.489 222.172 207.496C222.598 206.637 223.031 205.794 223.441 204.915C238.821 171.931 233.393 142.241 223.182 125.454C222.705 124.671 222.018 124.07 221.222 123.698C220.425 123.327 219.523 123.187 218.617 123.326C199.194 126.294 172.96 141.22 157.579 174.204C157.17 175.083 156.802 175.956 156.416 176.834C156.418 176.824 156.422 176.814 156.426 176.806L116.776 180.948C115.189 181.112 113.807 182.099 113.132 183.546L107.373 195.895C106.314 198.167 107.298 200.871 109.57 201.931L144.946 218.427C144.447 222.271 144.295 224.681 144.278 224.986C144.176 226.843 145.213 228.574 146.895 229.358L157.185 234.157C152.593 244.005 154.828 253.103 159.798 255.421C164.73 257.72 173.047 253.666 177.663 243.979C177.701 243.906 177.738 243.833 177.773 243.757L188.058 248.553C189.739 249.337 191.732 249.019 193.087 247.746C193.31 247.537 195.059 245.872 197.682 243.018L233.06 259.515C235.332 260.575 238.036 259.59 239.096 257.318L244.854 244.969C245.529 243.522 245.396 241.829 244.502 240.508ZM219.302 127.815C227.812 141.806 234.68 170.065 219.324 202.996C215.1 212.054 210.027 220.037 205.294 226.522L152.692 201.993C154.618 194.199 157.472 185.181 161.696 176.123C177.052 143.193 203.114 130.289 219.302 127.815ZM117.248 185.466L154.433 181.579C151.171 189.833 148.926 197.764 147.413 204.543L115.329 189.582L117.248 185.466ZM111.49 197.815L113.409 193.698L146.461 209.111C146.137 210.784 145.867 212.331 145.632 213.79C145.634 213.771 145.636 213.755 145.639 213.738L111.49 197.815ZM161.718 251.305C159.66 250.345 157.463 244.309 161.302 236.076L173.651 241.835C169.812 250.067 163.776 252.264 161.718 251.305ZM189.977 244.437L148.814 225.242C148.814 225.242 149.243 217.584 151.641 206.515L202.508 230.234C195.568 239.186 189.977 244.437 189.977 244.437ZM234.98 255.399L200.831 239.475C200.819 239.489 200.808 239.502 200.795 239.513C201.762 238.396 202.775 237.192 203.847 235.87L236.899 251.282L234.98 255.399ZM238.819 247.166L206.734 232.205C210.952 226.69 215.584 219.872 219.813 212.066L240.738 243.05L238.819 247.166Z" fill="white"/>
<path d="M192.43 185.443C199.248 188.623 207.357 185.671 210.537 178.853C213.717 172.034 210.765 163.925 203.946 160.745C197.128 157.566 189.019 160.517 185.839 167.336C182.659 174.155 185.611 182.264 192.43 185.443ZM202.027 164.862C206.573 166.982 208.541 172.387 206.421 176.933C204.301 181.48 198.896 183.447 194.349 181.327C189.803 179.207 187.835 173.802 189.955 169.255C192.075 164.709 197.481 162.742 202.027 164.862Z" fill="white"/>
</g>
<circle cx="133.5" cy="128.5" r="2.5" fill="white"/>
<ellipse cx="96.5" cy="275" rx="2.5" ry="3" fill="white"/>
<circle cx="270.5" cy="193.5" r="2.5" fill="white"/>
<circle cx="182.434" cy="274.915" r="1.88477" transform="rotate(-137.536 182.434 274.915)" fill="white"/>
<circle cx="280.211" cy="214.076" r="1.88477" transform="rotate(-137.536 280.211 214.076)" fill="white"/>
<circle cx="105.28" cy="155.227" r="1.88477" transform="rotate(-137.536 105.28 155.227)" fill="white"/>
<circle cx="115.077" cy="256.446" r="1.88477" transform="rotate(-137.536 115.077 256.446)" fill="white"/>
<circle cx="94.4652" cy="112.899" r="1.08641" transform="rotate(-137.536 94.4652 112.899)" fill="white"/>
<circle cx="296.465" cy="159.714" r="1.08641" transform="rotate(-137.536 296.465 159.714)" fill="white"/>
<circle cx="156.319" cy="69.5422" r="1.08641" transform="rotate(-137.536 156.319 69.5422)" fill="white"/>
<circle cx="143.282" cy="336.798" r="1.08641" transform="rotate(-137.536 143.282 336.798)" fill="white"/>
<circle cx="58.5424" cy="191.22" r="1.08641" transform="rotate(-137.536 58.5424 191.22)" fill="white"/>
<circle cx="236.754" cy="316.198" r="1.88477" transform="rotate(-137.536 236.754 316.198)" fill="white"/>
<circle cx="267.174" cy="80.4477" r="1.88477" transform="rotate(-137.536 267.174 80.4477)" fill="white"/>
</g>
<defs>
<filter id="filter0_d" x="-5" y="-1" width="385" height="469" filterUnits="userSpaceOnUse" color-interpolation-filters="sRGB">
<feFlood flood-opacity="0" result="BackgroundImageFix"/>
<feColorMatrix in="SourceAlpha" type="matrix" values="0 0 0 0 0 0 0 0 0 0 0 0 0 0 0 0 0 0 127 0"/>
<feOffset dy="4"/>
<feGaussianBlur stdDeviation="7.5"/>
<feColorMatrix type="matrix" values="0 0 0 0 0.303819 0 0 0 0 0.51625 0 0 0 0 0.583333 0 0 0 0.35 0"/>
<feBlend mode="normal" in2="BackgroundImageFix" result="effect1_dropShadow"/>
<feBlend mode="normal" in="SourceGraphic" in2="effect1_dropShadow" result="shape"/>
</filter>
<radialGradient id="paint0_radial" cx="0" cy="0" r="1" gradientUnits="userSpaceOnUse" gradientTransform="translate(378.253 458.051) rotate(-129.787) scale(612.437 885.085)">
<stop stop-color="#7DD7B6"/>
<stop offset="0.476744" stop-color="#0CA7B9"/>
<stop offset="1" stop-color="#006E98"/>
</radialGradient>
<clipPath id="clip0">
<rect width="355" height="439" fill="white" transform="translate(10 10)"/>
</clipPath>
<clipPath id="clip1">
<rect width="145.34" height="145.34" fill="white" transform="translate(155.36 92.9868) rotate(25)"/>
</clipPath>
</defs>
</svg>
